<svg width="368" height="368" viewBox="0 0 368 368" fill="none" xmlns="http://www.w3.org/2000/svg">
<path d="M184 92C200.937 92 214.667 78.2701 214.667 61.3333C214.667 44.3966 200.937 30.6667 184 30.6667C167.063 30.6667 153.333 44.3966 153.333 61.3333C153.333 78.2701 167.063 92 184 92Z" fill="black"/>
<path d="M243.647 124.353C237.667 118.373 227.393 107.333 207.46 107.333H168.513C126.347 107.18 92 72.8333 92 30.6667H61.3333C61.3333 79.12 93.6867 120.213 138 133.553V337.333H168.667V245.333H199.333V337.333H230V235L207.46 225L227 150H230L211 223.5L231.5 231.5L251.5 151C251.5 151 252 141.947 250 135.5C248 129.053 243.647 124.353 243.647 124.353Z" fill="black"/>
</svg>
